<!DOCTYPE svg PUBLIC "-//W3C//DTD SVG 1.1//EN" "http://www.w3.org/Graphics/SVG/1.1/DTD/svg11.dtd">
<!-- Uploaded to: SVG Repo, www.svgrepo.com, Transformed by: SVG Repo Mixer Tools -->
<svg fill="#3b3b3b" width="256px" height="256px" viewBox="-74.24 -74.24 404.48 404.48" xmlns="http://www.w3.org/2000/svg" transform="rotate(180)matrix(1, 0, 0, 1, 0, 0)" stroke="#3b3b3b" stroke-width="0.00256">
<g id="SVGRepo_bgCarrier" stroke-width="0" transform="translate(0,0), scale(1)">
<path transform="translate(-74.24, -74.24), scale(12.64)" d="M16,28.82559674429266C18.821357467814263,28.529367614092088,20.296001567379577,25.525255475950285,22.57433520541982,23.834987599977662C25.097015092921918,21.96344222838986,28.782921586265136,21.371925562685114,29.96797061797271,18.46293008569168C31.252725150076962,15.309182837315955,30.88894706399437,11.292970964114684,28.769446776553288,8.627556466154365C26.741172814577524,6.076865222506254,22.799381044450133,6.842952635759422,19.770927728225363,5.639461216305504C16.580399647618925,4.37156213793264,14.033887610925975,0.6138490768387171,10.70360994877554,1.4482879296366828C7.358167525749896,2.2865264853277365,5.651771538260798,6.140748591592655,4.627179656307945,9.43389911312413C3.763802755380218,12.208887029434015,4.976946530376976,14.995440321759919,5.605941390119581,17.832752971987034C6.196333962170087,20.495935806206884,6.281194078807357,23.366813794272492,8.155329090485303,25.34891473913342C10.18149070062181,27.491800292665054,13.067005647418991,29.133547217020727,16,28.82559674429266" fill="#f4be1a" strokewidth="0"/>
</g>
<g id="SVGRepo_tracerCarrier" stroke-linecap="round" stroke-linejoin="round" stroke="#CCCCCC" stroke-width="2.048"/>
<g id="SVGRepo_iconCarrier"> <path d="M127 210c-44.735 0-81-36.265-81-81s36.265-81 81-81 81 36.265 81 81-36.265 81-81 81zm1-21c34.794 0 63-27.087 63-60.5S162.794 68 128 68s-63 27.087-63 60.5S93.206 189 128 189z" fill-rule="evenodd"/> </g>
</svg>